<svg width="1920" height="1080" viewBox="0 0 1920 1080" fill="none" xmlns="http://www.w3.org/2000/svg">
<g clip-path="url(#clip0_2_88)">
<rect width="1920" height="1080" fill="#090909"/>
<circle cx="37" cy="57" r="4" fill="#111111"/>
<circle cx="125" cy="57" r="4" fill="#111111"/>
<circle cx="213" cy="57" r="4" fill="#111111"/>
<circle cx="301" cy="57" r="4" fill="#111111"/>
<circle cx="389" cy="57" r="4" fill="#111111"/>
<circle cx="477" cy="57" r="4" fill="#111111"/>
<circle cx="565" cy="57" r="4" fill="#111111"/>
<circle cx="653" cy="57" r="4" fill="#111111"/>
<circle cx="741" cy="57" r="4" fill="#111111"/>
<circle cx="829" cy="57" r="4" fill="#111111"/>
<circle cx="917" cy="57" r="4" fill="#111111"/>
<circle cx="1005" cy="57" r="4" fill="#111111"/>
<circle cx="1093" cy="57" r="4" fill="#111111"/>
<circle cx="1181" cy="57" r="4" fill="#111111"/>
<circle cx="1269" cy="57" r="4" fill="#111111"/>
<circle cx="1357" cy="57" r="4" fill="#111111"/>
<circle cx="1445" cy="57" r="4" fill="#111111"/>
<circle cx="1533" cy="57" r="4" fill="#111111"/>
<circle cx="1621" cy="57" r="4" fill="#111111"/>
<circle cx="1709" cy="57" r="4" fill="#111111"/>
<circle cx="1797" cy="57" r="4" fill="#111111"/>
<circle cx="1885" cy="57" r="4" fill="#111111"/>
<circle cx="37" cy="145" r="4" fill="#111111"/>
<circle cx="125" cy="145" r="4" fill="#111111"/>
<circle cx="213" cy="145" r="4" fill="#111111"/>
<circle cx="301" cy="145" r="4" fill="#111111"/>
<circle cx="389" cy="145" r="4" fill="#111111"/>
<circle cx="477" cy="145" r="4" fill="#111111"/>
<circle cx="565" cy="145" r="4" fill="#111111"/>
<circle cx="653" cy="145" r="4" fill="#111111"/>
<circle cx="741" cy="145" r="4" fill="#111111"/>
<circle cx="829" cy="145" r="4" fill="#111111"/>
<circle cx="917" cy="145" r="4" fill="#111111"/>
<circle cx="1005" cy="145" r="4" fill="#111111"/>
<circle cx="1093" cy="145" r="4" fill="#111111"/>
<circle cx="1181" cy="145" r="4" fill="#111111"/>
<circle cx="1269" cy="145" r="4" fill="#111111"/>
<circle cx="1357" cy="145" r="4" fill="#111111"/>
<circle cx="1445" cy="145" r="4" fill="#111111"/>
<circle cx="1533" cy="145" r="4" fill="#111111"/>
<circle cx="1621" cy="145" r="4" fill="#111111"/>
<circle cx="1709" cy="145" r="4" fill="#111111"/>
<circle cx="1797" cy="145" r="4" fill="#111111"/>
<circle cx="1885" cy="145" r="4" fill="#111111"/>
<circle cx="37" cy="233" r="4" fill="#111111"/>
<circle cx="125" cy="233" r="4" fill="#111111"/>
<circle cx="213" cy="233" r="4" fill="#111111"/>
<circle cx="301" cy="233" r="4" fill="#111111"/>
<circle cx="389" cy="233" r="4" fill="#111111"/>
<circle cx="477" cy="233" r="4" fill="#111111"/>
<circle cx="565" cy="233" r="4" fill="#111111"/>
<circle cx="653" cy="233" r="4" fill="#111111"/>
<circle cx="741" cy="233" r="4" fill="#111111"/>
<circle cx="829" cy="233" r="4" fill="#111111"/>
<circle cx="917" cy="233" r="4" fill="#111111"/>
<circle cx="1005" cy="233" r="4" fill="#111111"/>
<circle cx="1093" cy="233" r="4" fill="#111111"/>
<circle cx="1181" cy="233" r="4" fill="#111111"/>
<circle cx="1269" cy="233" r="4" fill="#111111"/>
<circle cx="1357" cy="233" r="4" fill="#111111"/>
<circle cx="1445" cy="233" r="4" fill="#111111"/>
<circle cx="1533" cy="233" r="4" fill="#111111"/>
<circle cx="1621" cy="233" r="4" fill="#111111"/>
<circle cx="1709" cy="233" r="4" fill="#111111"/>
<circle cx="1797" cy="233" r="4" fill="#111111"/>
<circle cx="1885" cy="233" r="4" fill="#111111"/>
<circle cx="37" cy="321" r="4" fill="#111111"/>
<circle cx="125" cy="321" r="4" fill="#111111"/>
<circle cx="213" cy="321" r="4" fill="#111111"/>
<circle cx="301" cy="321" r="4" fill="#111111"/>
<circle cx="389" cy="321" r="4" fill="#111111"/>
<circle cx="477" cy="321" r="4" fill="#111111"/>
<circle cx="565" cy="321" r="4" fill="#111111"/>
<circle cx="653" cy="321" r="4" fill="#111111"/>
<circle cx="741" cy="321" r="4" fill="#111111"/>
<circle cx="829" cy="321" r="4" fill="#111111"/>
<circle cx="917" cy="321" r="4" fill="#111111"/>
<circle cx="1005" cy="321" r="4" fill="#111111"/>
<circle cx="1093" cy="321" r="4" fill="#111111"/>
<circle cx="1181" cy="321" r="4" fill="#111111"/>
<circle cx="1269" cy="321" r="4" fill="#111111"/>
<circle cx="1357" cy="321" r="4" fill="#111111"/>
<circle cx="1445" cy="321" r="4" fill="#111111"/>
<circle cx="1533" cy="321" r="4" fill="#111111"/>
<circle cx="1621" cy="321" r="4" fill="#111111"/>
<circle cx="1709" cy="321" r="4" fill="#111111"/>
<circle cx="1797" cy="321" r="4" fill="#111111"/>
<circle cx="1885" cy="321" r="4" fill="#111111"/>
<circle cx="37" cy="409" r="4" fill="#111111"/>
<circle cx="125" cy="409" r="4" fill="#111111"/>
<circle cx="213" cy="409" r="4" fill="#111111"/>
<circle cx="301" cy="409" r="4" fill="#111111"/>
<circle cx="389" cy="409" r="4" fill="#111111"/>
<circle cx="477" cy="409" r="4" fill="#111111"/>
<circle cx="565" cy="409" r="4" fill="#111111"/>
<circle cx="653" cy="409" r="4" fill="#111111"/>
<circle cx="741" cy="409" r="4" fill="#111111"/>
<circle cx="829" cy="409" r="4" fill="#111111"/>
<circle cx="917" cy="409" r="4" fill="#111111"/>
<circle cx="1005" cy="409" r="4" fill="#111111"/>
<circle cx="1093" cy="409" r="4" fill="#111111"/>
<circle cx="1181" cy="409" r="4" fill="#111111"/>
<circle cx="1269" cy="409" r="4" fill="#111111"/>
<circle cx="1357" cy="409" r="4" fill="#111111"/>
<circle cx="1445" cy="409" r="4" fill="#111111"/>
<circle cx="1533" cy="409" r="4" fill="#111111"/>
<circle cx="1621" cy="409" r="4" fill="#111111"/>
<circle cx="1709" cy="409" r="4" fill="#111111"/>
<circle cx="1797" cy="409" r="4" fill="#111111"/>
<circle cx="1885" cy="409" r="4" fill="#111111"/>
<circle cx="37" cy="497" r="4" fill="#111111"/>
<circle cx="125" cy="497" r="4" fill="#111111"/>
<circle cx="213" cy="497" r="4" fill="#111111"/>
<circle cx="301" cy="497" r="4" fill="#111111"/>
<circle cx="389" cy="497" r="4" fill="#111111"/>
<circle cx="477" cy="497" r="4" fill="#111111"/>
<circle cx="565" cy="497" r="4" fill="#111111"/>
<circle cx="653" cy="497" r="4" fill="#111111"/>
<circle cx="741" cy="497" r="4" fill="#111111"/>
<circle cx="829" cy="497" r="4" fill="#111111"/>
<circle cx="917" cy="497" r="4" fill="#111111"/>
<circle cx="1005" cy="497" r="4" fill="#111111"/>
<circle cx="1093" cy="497" r="4" fill="#111111"/>
<circle cx="1181" cy="497" r="4" fill="#111111"/>
<circle cx="1269" cy="497" r="4" fill="#111111"/>
<circle cx="1357" cy="497" r="4" fill="#111111"/>
<circle cx="1445" cy="497" r="4" fill="#111111"/>
<circle cx="1533" cy="497" r="4" fill="#111111"/>
<circle cx="1621" cy="497" r="4" fill="#111111"/>
<circle cx="1709" cy="497" r="4" fill="#111111"/>
<circle cx="1797" cy="497" r="4" fill="#111111"/>
<circle cx="1885" cy="497" r="4" fill="#111111"/>
<circle cx="37" cy="585" r="4" fill="#111111"/>
<circle cx="125" cy="585" r="4" fill="#111111"/>
<circle cx="213" cy="585" r="4" fill="#111111"/>
<circle cx="301" cy="585" r="4" fill="#111111"/>
<circle cx="389" cy="585" r="4" fill="#111111"/>
<circle cx="477" cy="585" r="4" fill="#111111"/>
<circle cx="565" cy="585" r="4" fill="#111111"/>
<circle cx="653" cy="585" r="4" fill="#111111"/>
<circle cx="741" cy="585" r="4" fill="#111111"/>
<circle cx="829" cy="585" r="4" fill="#111111"/>
<circle cx="917" cy="585" r="4" fill="#111111"/>
<circle cx="1005" cy="585" r="4" fill="#111111"/>
<circle cx="1093" cy="585" r="4" fill="#111111"/>
<circle cx="1181" cy="585" r="4" fill="#111111"/>
<circle cx="1269" cy="585" r="4" fill="#111111"/>
<circle cx="1357" cy="585" r="4" fill="#111111"/>
<circle cx="1445" cy="585" r="4" fill="#111111"/>
<circle cx="1533" cy="585" r="4" fill="#111111"/>
<circle cx="1621" cy="585" r="4" fill="#111111"/>
<circle cx="1709" cy="585" r="4" fill="#111111"/>
<circle cx="1797" cy="585" r="4" fill="#111111"/>
<circle cx="1885" cy="585" r="4" fill="#111111"/>
<circle cx="37" cy="673" r="4" fill="#111111"/>
<circle cx="125" cy="673" r="4" fill="#111111"/>
<circle cx="213" cy="673" r="4" fill="#111111"/>
<circle cx="301" cy="673" r="4" fill="#111111"/>
<circle cx="389" cy="673" r="4" fill="#111111"/>
<circle cx="477" cy="673" r="4" fill="#111111"/>
<circle cx="565" cy="673" r="4" fill="#111111"/>
<circle cx="653" cy="673" r="4" fill="#111111"/>
<circle cx="741" cy="673" r="4" fill="#111111"/>
<circle cx="829" cy="673" r="4" fill="#111111"/>
<circle cx="917" cy="673" r="4" fill="#111111"/>
<circle cx="1005" cy="673" r="4" fill="#111111"/>
<circle cx="1093" cy="673" r="4" fill="#111111"/>
<circle cx="1181" cy="673" r="4" fill="#111111"/>
<circle cx="1269" cy="673" r="4" fill="#111111"/>
<circle cx="1357" cy="673" r="4" fill="#111111"/>
<circle cx="1445" cy="673" r="4" fill="#111111"/>
<circle cx="1533" cy="673" r="4" fill="#111111"/>
<circle cx="1621" cy="673" r="4" fill="#111111"/>
<circle cx="1709" cy="673" r="4" fill="#111111"/>
<circle cx="1797" cy="673" r="4" fill="#111111"/>
<circle cx="1885" cy="673" r="4" fill="#111111"/>
<circle cx="37" cy="761" r="4" fill="#111111"/>
<circle cx="125" cy="761" r="4" fill="#111111"/>
<circle cx="213" cy="761" r="4" fill="#111111"/>
<circle cx="301" cy="761" r="4" fill="#111111"/>
<circle cx="389" cy="761" r="4" fill="#111111"/>
<circle cx="477" cy="761" r="4" fill="#111111"/>
<circle cx="565" cy="761" r="4" fill="#111111"/>
<circle cx="653" cy="761" r="4" fill="#111111"/>
<circle cx="741" cy="761" r="4" fill="#111111"/>
<circle cx="829" cy="761" r="4" fill="#111111"/>
<circle cx="917" cy="761" r="4" fill="#111111"/>
<circle cx="1005" cy="761" r="4" fill="#111111"/>
<circle cx="1093" cy="761" r="4" fill="#111111"/>
<circle cx="1181" cy="761" r="4" fill="#111111"/>
<circle cx="1269" cy="761" r="4" fill="#111111"/>
<circle cx="1357" cy="761" r="4" fill="#111111"/>
<circle cx="1445" cy="761" r="4" fill="#111111"/>
<circle cx="1533" cy="761" r="4" fill="#111111"/>
<circle cx="1621" cy="761" r="4" fill="#111111"/>
<circle cx="1709" cy="761" r="4" fill="#111111"/>
<circle cx="1797" cy="761" r="4" fill="#111111"/>
<circle cx="1885" cy="761" r="4" fill="#111111"/>
<circle cx="37" cy="849" r="4" fill="#111111"/>
<circle cx="125" cy="849" r="4" fill="#111111"/>
<circle cx="213" cy="849" r="4" fill="#111111"/>
<circle cx="301" cy="849" r="4" fill="#111111"/>
<circle cx="389" cy="849" r="4" fill="#111111"/>
<circle cx="477" cy="849" r="4" fill="#111111"/>
<circle cx="565" cy="849" r="4" fill="#111111"/>
<circle cx="653" cy="849" r="4" fill="#111111"/>
<circle cx="741" cy="849" r="4" fill="#111111"/>
<circle cx="829" cy="849" r="4" fill="#111111"/>
<circle cx="917" cy="849" r="4" fill="#111111"/>
<circle cx="1005" cy="849" r="4" fill="#111111"/>
<circle cx="1093" cy="849" r="4" fill="#111111"/>
<circle cx="1181" cy="849" r="4" fill="#111111"/>
<circle cx="1269" cy="849" r="4" fill="#111111"/>
<circle cx="1357" cy="849" r="4" fill="#111111"/>
<circle cx="1445" cy="849" r="4" fill="#111111"/>
<circle cx="1533" cy="849" r="4" fill="#111111"/>
<circle cx="1621" cy="849" r="4" fill="#111111"/>
<circle cx="1709" cy="849" r="4" fill="#111111"/>
<circle cx="1797" cy="849" r="4" fill="#111111"/>
<circle cx="1885" cy="849" r="4" fill="#111111"/>
<circle cx="37" cy="937" r="4" fill="#111111"/>
<circle cx="125" cy="937" r="4" fill="#111111"/>
<circle cx="213" cy="937" r="4" fill="#111111"/>
<circle cx="301" cy="937" r="4" fill="#111111"/>
<circle cx="389" cy="937" r="4" fill="#111111"/>
<circle cx="477" cy="937" r="4" fill="#111111"/>
<circle cx="565" cy="937" r="4" fill="#111111"/>
<circle cx="653" cy="937" r="4" fill="#111111"/>
<circle cx="741" cy="937" r="4" fill="#111111"/>
<circle cx="829" cy="937" r="4" fill="#111111"/>
<circle cx="917" cy="937" r="4" fill="#111111"/>
<circle cx="1005" cy="937" r="4" fill="#111111"/>
<circle cx="1093" cy="937" r="4" fill="#111111"/>
<circle cx="1181" cy="937" r="4" fill="#111111"/>
<circle cx="1269" cy="937" r="4" fill="#111111"/>
<circle cx="1357" cy="937" r="4" fill="#111111"/>
<circle cx="1445" cy="937" r="4" fill="#111111"/>
<circle cx="1533" cy="937" r="4" fill="#111111"/>
<circle cx="1621" cy="937" r="4" fill="#111111"/>
<circle cx="1709" cy="937" r="4" fill="#111111"/>
<circle cx="1797" cy="937" r="4" fill="#111111"/>
<circle cx="1885" cy="937" r="4" fill="#111111"/>
<circle cx="37" cy="1025" r="4" fill="#111111"/>
<circle cx="125" cy="1025" r="4" fill="#111111"/>
<circle cx="213" cy="1025" r="4" fill="#111111"/>
<circle cx="301" cy="1025" r="4" fill="#111111"/>
<circle cx="389" cy="1025" r="4" fill="#111111"/>
<circle cx="477" cy="1025" r="4" fill="#111111"/>
<circle cx="565" cy="1025" r="4" fill="#111111"/>
<circle cx="653" cy="1025" r="4" fill="#111111"/>
<circle cx="741" cy="1025" r="4" fill="#111111"/>
<circle cx="829" cy="1025" r="4" fill="#111111"/>
<circle cx="917" cy="1025" r="4" fill="#111111"/>
<circle cx="1005" cy="1025" r="4" fill="#111111"/>
<circle cx="1093" cy="1025" r="4" fill="#111111"/>
<circle cx="1181" cy="1025" r="4" fill="#111111"/>
<circle cx="1269" cy="1025" r="4" fill="#111111"/>
<circle cx="1357" cy="1025" r="4" fill="#111111"/>
<circle cx="1445" cy="1025" r="4" fill="#111111"/>
<circle cx="1533" cy="1025" r="4" fill="#111111"/>
<circle cx="1621" cy="1025" r="4" fill="#111111"/>
<circle cx="1709" cy="1025" r="4" fill="#111111"/>
<circle cx="1797" cy="1025" r="4" fill="#111111"/>
<circle cx="1885" cy="1025" r="4" fill="#111111"/>
<g clip-path="url(#clip1_2_88)">
<path d="M441.007 337.408C441.007 352.853 436.783 364.501 428.335 372.352C419.972 380.117 408.282 384 393.263 384H367.791V292.608H395.951C405.167 292.608 413.146 294.315 419.887 297.728C426.628 301.141 431.834 306.176 435.503 312.832C439.172 319.403 441.007 327.595 441.007 337.408ZM428.847 337.792C428.847 325.589 425.818 316.672 419.759 311.04C413.786 305.323 405.295 302.464 394.287 302.464H379.311V374.144H391.727C416.474 374.144 428.847 362.027 428.847 337.792ZM519.403 349.568C519.403 360.917 516.502 369.707 510.699 375.936C504.982 382.165 497.216 385.28 487.403 385.28C481.344 385.28 475.926 383.915 471.147 381.184C466.454 378.368 462.742 374.315 460.011 369.024C457.28 363.648 455.915 357.163 455.915 349.568C455.915 338.219 458.774 329.472 464.491 323.328C470.208 317.184 477.974 314.112 487.787 314.112C494.016 314.112 499.478 315.52 504.171 318.336C508.95 321.067 512.662 325.077 515.307 330.368C518.038 335.573 519.403 341.973 519.403 349.568ZM467.563 349.568C467.563 357.675 469.142 364.117 472.299 368.896C475.542 373.589 480.662 375.936 487.659 375.936C494.571 375.936 499.648 373.589 502.891 368.896C506.134 364.117 507.755 357.675 507.755 349.568C507.755 341.461 506.134 335.104 502.891 330.496C499.648 325.888 494.528 323.584 487.531 323.584C480.534 323.584 475.456 325.888 472.299 330.496C469.142 335.104 467.563 341.461 467.563 349.568ZM579.043 345.216C577.934 341.717 576.952 338.304 576.099 334.976C575.331 331.563 574.734 328.917 574.307 327.04H573.795C573.454 328.917 572.899 331.563 572.131 334.976C571.363 338.304 570.382 341.76 569.187 345.344L556.899 383.872H544.099L525.283 315.264H536.931L546.403 351.872C547.342 355.541 548.238 359.253 549.091 363.008C549.944 366.763 550.542 369.877 550.883 372.352H551.395C551.736 370.901 552.12 369.109 552.547 366.976C553.059 364.843 553.614 362.624 554.211 360.32C554.808 357.931 555.406 355.797 556.003 353.92L568.163 315.264H580.451L592.227 353.92C593.166 356.821 594.062 359.979 594.915 363.392C595.854 366.805 596.494 369.749 596.835 372.224H597.347C597.603 370.091 598.158 367.147 599.011 363.392C599.95 359.637 600.931 355.797 601.955 351.872L611.555 315.264H623.075L604.003 383.872H590.819L579.043 345.216ZM668.404 314.112C676.596 314.112 682.783 316.117 686.964 320.128C691.145 324.053 693.236 330.453 693.236 339.328V384H682.1V340.096C682.1 329.088 676.98 323.584 666.74 323.584C659.145 323.584 653.897 325.717 650.996 329.984C648.095 334.251 646.644 340.395 646.644 348.416V384H635.38V315.392H644.468L646.132 324.736H646.772C648.991 321.152 652.063 318.507 655.988 316.8C659.913 315.008 664.052 314.112 668.404 314.112ZM725.769 384H714.505V286.72H725.769V384ZM807.153 349.568C807.153 360.917 804.252 369.707 798.449 375.936C792.732 382.165 784.966 385.28 775.153 385.28C769.094 385.28 763.676 383.915 758.897 381.184C754.204 378.368 750.492 374.315 747.761 369.024C745.03 363.648 743.665 357.163 743.665 349.568C743.665 338.219 746.524 329.472 752.241 323.328C757.958 317.184 765.724 314.112 775.537 314.112C781.766 314.112 787.228 315.52 791.921 318.336C796.7 321.067 800.412 325.077 803.057 330.368C805.788 335.573 807.153 341.973 807.153 349.568ZM755.313 349.568C755.313 357.675 756.892 364.117 760.049 368.896C763.292 373.589 768.412 375.936 775.409 375.936C782.321 375.936 787.398 373.589 790.641 368.896C793.884 364.117 795.505 357.675 795.505 349.568C795.505 341.461 793.884 335.104 790.641 330.496C787.398 325.888 782.278 323.584 775.281 323.584C768.284 323.584 763.206 325.888 760.049 330.496C756.892 335.104 755.313 341.461 755.313 349.568ZM850.989 314.24C859.352 314.24 865.538 316.075 869.549 319.744C873.56 323.413 875.565 329.259 875.565 337.28V384H867.373L865.197 374.272H864.685C861.698 378.027 858.541 380.8 855.213 382.592C851.97 384.384 847.448 385.28 841.645 385.28C835.416 385.28 830.253 383.659 826.157 380.416C822.061 377.088 820.013 371.925 820.013 364.928C820.013 358.101 822.701 352.853 828.077 349.184C833.453 345.429 841.73 343.381 852.909 343.04L864.557 342.656V338.56C864.557 332.843 863.32 328.875 860.845 326.656C858.37 324.437 854.872 323.328 850.349 323.328C846.765 323.328 843.352 323.883 840.109 324.992C836.866 326.016 833.837 327.211 831.021 328.576L827.565 320.128C830.552 318.507 834.093 317.141 838.189 316.032C842.285 314.837 846.552 314.24 850.989 314.24ZM854.317 350.848C845.784 351.189 839.853 352.555 836.525 354.944C833.282 357.333 831.661 360.704 831.661 365.056C831.661 368.896 832.813 371.712 835.117 373.504C837.506 375.296 840.536 376.192 844.205 376.192C850.008 376.192 854.829 374.613 858.669 371.456C862.509 368.213 864.429 363.264 864.429 356.608V350.464L854.317 350.848ZM921.075 385.28C912.542 385.28 905.715 382.336 900.595 376.448C895.475 370.475 892.915 361.6 892.915 349.824C892.915 338.048 895.475 329.173 900.595 323.2C905.8 317.141 912.67 314.112 921.203 314.112C926.494 314.112 930.803 315.093 934.131 317.056C937.544 319.019 940.318 321.408 942.451 324.224H943.219C943.134 323.115 942.963 321.493 942.707 319.36C942.536 317.141 942.451 315.392 942.451 314.112V286.72H953.715V384H944.627L942.963 374.784H942.451C940.403 377.685 937.672 380.16 934.259 382.208C930.846 384.256 926.451 385.28 921.075 385.28ZM922.867 375.936C930.12 375.936 935.198 373.973 938.099 370.048C941.086 366.037 942.579 360.021 942.579 352V349.952C942.579 341.419 941.171 334.891 938.355 330.368C935.539 325.76 930.334 323.456 922.739 323.456C916.68 323.456 912.115 325.888 909.043 330.752C906.056 335.531 904.563 341.973 904.563 350.08C904.563 358.272 906.056 364.629 909.043 369.152C912.115 373.675 916.723 375.936 922.867 375.936Z" fill="white"/>
<path d="M1034.74 314.24C1043.1 314.24 1049.29 316.075 1053.3 319.744C1057.31 323.413 1059.32 329.259 1059.32 337.28V384H1051.12L1048.95 374.272H1048.44C1045.45 378.027 1042.29 380.8 1038.96 382.592C1035.72 384.384 1031.2 385.28 1025.4 385.28C1019.17 385.28 1014 383.659 1009.91 380.416C1005.81 377.088 1003.76 371.925 1003.76 364.928C1003.76 358.101 1006.45 352.853 1011.83 349.184C1017.2 345.429 1025.48 343.381 1036.66 343.04L1048.31 342.656V338.56C1048.31 332.843 1047.07 328.875 1044.6 326.656C1042.12 324.437 1038.62 323.328 1034.1 323.328C1030.52 323.328 1027.1 323.883 1023.86 324.992C1020.62 326.016 1017.59 327.211 1014.77 328.576L1011.32 320.128C1014.3 318.507 1017.84 317.141 1021.94 316.032C1026.04 314.837 1030.3 314.24 1034.74 314.24ZM1038.07 350.848C1029.53 351.189 1023.6 352.555 1020.28 354.944C1017.03 357.333 1015.41 360.704 1015.41 365.056C1015.41 368.896 1016.56 371.712 1018.87 373.504C1021.26 375.296 1024.29 376.192 1027.96 376.192C1033.76 376.192 1038.58 374.613 1042.42 371.456C1046.26 368.213 1048.18 363.264 1048.18 356.608V350.464L1038.07 350.848ZM1113.53 314.112C1121.72 314.112 1127.91 316.117 1132.09 320.128C1136.27 324.053 1138.36 330.453 1138.36 339.328V384H1127.23V340.096C1127.23 329.088 1122.11 323.584 1111.87 323.584C1104.27 323.584 1099.02 325.717 1096.12 329.984C1093.22 334.251 1091.77 340.395 1091.77 348.416V384H1080.51V315.392H1089.59L1091.26 324.736H1091.9C1094.12 321.152 1097.19 318.507 1101.11 316.8C1105.04 315.008 1109.18 314.112 1113.53 314.112ZM1148.88 315.392H1160.91L1175.76 354.432C1177.04 357.845 1178.19 361.131 1179.21 364.288C1180.24 367.36 1181.01 370.304 1181.52 373.12H1182.03C1182.54 370.987 1183.35 368.213 1184.46 364.8C1185.57 361.301 1186.72 357.803 1187.92 354.304L1201.87 315.392H1214.03L1184.46 393.472C1182.07 399.957 1178.96 405.12 1175.12 408.96C1171.36 412.8 1166.16 414.72 1159.5 414.72C1157.45 414.72 1155.66 414.592 1154.13 414.336C1152.59 414.165 1151.27 413.952 1150.16 413.696V404.736C1151.1 404.907 1152.21 405.077 1153.49 405.248C1154.85 405.419 1156.26 405.504 1157.71 405.504C1161.64 405.504 1164.79 404.395 1167.18 402.176C1169.66 399.957 1171.58 397.013 1172.94 393.344L1176.53 384.256L1148.88 315.392ZM1247.79 376.064C1249.5 376.064 1251.25 375.936 1253.04 375.68C1254.83 375.339 1256.28 374.997 1257.39 374.656V383.232C1256.2 383.829 1254.49 384.299 1252.27 384.64C1250.05 385.067 1247.92 385.28 1245.87 385.28C1242.29 385.28 1238.96 384.683 1235.89 383.488C1232.9 382.208 1230.47 380.032 1228.59 376.96C1226.71 373.888 1225.78 369.579 1225.78 364.032V324.096H1216.05V318.72L1225.9 314.24L1230.38 299.648H1237.04V315.392H1256.88V324.096H1237.04V363.776C1237.04 367.957 1238.02 371.072 1239.98 373.12C1242.03 375.083 1244.63 376.064 1247.79 376.064ZM1282.39 315.264C1282.39 318.677 1282.18 321.877 1281.75 324.864H1282.52C1284.74 321.365 1287.73 318.72 1291.48 316.928C1295.32 315.136 1299.46 314.24 1303.9 314.24C1312.26 314.24 1318.53 316.245 1322.71 320.256C1326.9 324.181 1328.99 330.539 1328.99 339.328V384H1317.85V340.096C1317.85 329.088 1312.73 323.584 1302.49 323.584C1294.81 323.584 1289.52 325.76 1286.62 330.112C1283.8 334.379 1282.39 340.523 1282.39 348.544V384H1271.13V286.72H1282.39V315.264ZM1356.02 289.664C1357.72 289.664 1359.22 290.261 1360.5 291.456C1361.86 292.565 1362.54 294.357 1362.54 296.832C1362.54 299.221 1361.86 301.013 1360.5 302.208C1359.22 303.403 1357.72 304 1356.02 304C1354.14 304 1352.56 303.403 1351.28 302.208C1350 301.013 1349.36 299.221 1349.36 296.832C1349.36 294.357 1350 292.565 1351.28 291.456C1352.56 290.261 1354.14 289.664 1356.02 289.664ZM1361.52 315.392V384H1350.26V315.392H1361.52ZM1416.28 314.112C1424.47 314.112 1430.66 316.117 1434.84 320.128C1439.02 324.053 1441.11 330.453 1441.11 339.328V384H1429.98V340.096C1429.98 329.088 1424.86 323.584 1414.62 323.584C1407.02 323.584 1401.77 325.717 1398.87 329.984C1395.97 334.251 1394.52 340.395 1394.52 348.416V384H1383.26V315.392H1392.34L1394.01 324.736H1394.65C1396.87 321.152 1399.94 318.507 1403.86 316.8C1407.79 315.008 1411.93 314.112 1416.28 314.112ZM1486.7 314.112C1491.22 314.112 1495.28 314.965 1498.86 316.672C1502.53 318.379 1505.64 320.981 1508.2 324.48H1508.84L1510.38 315.392H1519.34V385.152C1519.34 394.965 1516.82 402.347 1511.79 407.296C1506.84 412.245 1499.12 414.72 1488.62 414.72C1478.55 414.72 1470.32 413.269 1463.92 410.368V400C1470.66 403.584 1479.11 405.376 1489.26 405.376C1495.15 405.376 1499.76 403.627 1503.08 400.128C1506.5 396.715 1508.2 392.021 1508.2 386.048V383.36C1508.2 382.336 1508.25 380.885 1508.33 379.008C1508.42 377.045 1508.5 375.68 1508.59 374.912H1508.08C1503.47 381.824 1496.39 385.28 1486.83 385.28C1477.95 385.28 1471 382.165 1465.96 375.936C1461.01 369.707 1458.54 361.003 1458.54 349.824C1458.54 338.901 1461.01 330.24 1465.96 323.84C1471 317.355 1477.91 314.112 1486.7 314.112ZM1488.24 323.584C1482.52 323.584 1478.08 325.888 1474.92 330.496C1471.77 335.019 1470.19 341.504 1470.19 349.952C1470.19 358.4 1471.72 364.885 1474.8 369.408C1477.95 373.845 1482.52 376.064 1488.49 376.064C1495.4 376.064 1500.44 374.229 1503.6 370.56C1506.75 366.805 1508.33 360.789 1508.33 352.512V349.824C1508.33 340.437 1506.71 333.739 1503.47 329.728C1500.23 325.632 1495.15 323.584 1488.24 323.584Z" fill="url(#paint0_linear_2_88)"/>
<path d="M1539.44 377.062C1539.44 375.479 1539.65 374.146 1540.06 373.062C1540.48 371.938 1541.04 371.042 1541.75 370.375C1542.46 369.667 1543.29 369.167 1544.25 368.875C1545.21 368.542 1546.25 368.375 1547.38 368.375C1548.46 368.375 1549.48 368.542 1550.44 368.875C1551.44 369.167 1552.29 369.667 1553 370.375C1553.71 371.042 1554.27 371.938 1554.69 373.062C1555.1 374.146 1555.31 375.479 1555.31 377.062C1555.31 378.604 1555.1 379.938 1554.69 381.062C1554.27 382.146 1553.71 383.042 1553 383.75C1552.29 384.458 1551.44 384.979 1550.44 385.312C1549.48 385.646 1548.46 385.812 1547.38 385.812C1546.25 385.812 1545.21 385.646 1544.25 385.312C1543.29 384.979 1542.46 384.458 1541.75 383.75C1541.04 383.042 1540.48 382.146 1540.06 381.062C1539.65 379.938 1539.44 378.604 1539.44 377.062Z" fill="url(#paint1_linear_2_88)"/>
<g filter="url(#filter0_f_2_88)">
<path d="M441.007 337.408C441.007 352.853 436.783 364.501 428.335 372.352C419.972 380.117 408.282 384 393.263 384H367.791V292.608H395.951C405.167 292.608 413.146 294.315 419.887 297.728C426.628 301.141 431.834 306.176 435.503 312.832C439.172 319.403 441.007 327.595 441.007 337.408ZM428.847 337.792C428.847 325.589 425.818 316.672 419.759 311.04C413.786 305.323 405.295 302.464 394.287 302.464H379.311V374.144H391.727C416.474 374.144 428.847 362.027 428.847 337.792ZM519.403 349.568C519.403 360.917 516.502 369.707 510.699 375.936C504.982 382.165 497.216 385.28 487.403 385.28C481.344 385.28 475.926 383.915 471.147 381.184C466.454 378.368 462.742 374.315 460.011 369.024C457.28 363.648 455.915 357.163 455.915 349.568C455.915 338.219 458.774 329.472 464.491 323.328C470.208 317.184 477.974 314.112 487.787 314.112C494.016 314.112 499.478 315.52 504.171 318.336C508.95 321.067 512.662 325.077 515.307 330.368C518.038 335.573 519.403 341.973 519.403 349.568ZM467.563 349.568C467.563 357.675 469.142 364.117 472.299 368.896C475.542 373.589 480.662 375.936 487.659 375.936C494.571 375.936 499.648 373.589 502.891 368.896C506.134 364.117 507.755 357.675 507.755 349.568C507.755 341.461 506.134 335.104 502.891 330.496C499.648 325.888 494.528 323.584 487.531 323.584C480.534 323.584 475.456 325.888 472.299 330.496C469.142 335.104 467.563 341.461 467.563 349.568ZM579.043 345.216C577.934 341.717 576.952 338.304 576.099 334.976C575.331 331.563 574.734 328.917 574.307 327.04H573.795C573.454 328.917 572.899 331.563 572.131 334.976C571.363 338.304 570.382 341.76 569.187 345.344L556.899 383.872H544.099L525.283 315.264H536.931L546.403 351.872C547.342 355.541 548.238 359.253 549.091 363.008C549.944 366.763 550.542 369.877 550.883 372.352H551.395C551.736 370.901 552.12 369.109 552.547 366.976C553.059 364.843 553.614 362.624 554.211 360.32C554.808 357.931 555.406 355.797 556.003 353.92L568.163 315.264H580.451L592.227 353.92C593.166 356.821 594.062 359.979 594.915 363.392C595.854 366.805 596.494 369.749 596.835 372.224H597.347C597.603 370.091 598.158 367.147 599.011 363.392C599.95 359.637 600.931 355.797 601.955 351.872L611.555 315.264H623.075L604.003 383.872H590.819L579.043 345.216ZM668.404 314.112C676.596 314.112 682.783 316.117 686.964 320.128C691.145 324.053 693.236 330.453 693.236 339.328V384H682.1V340.096C682.1 329.088 676.98 323.584 666.74 323.584C659.145 323.584 653.897 325.717 650.996 329.984C648.095 334.251 646.644 340.395 646.644 348.416V384H635.38V315.392H644.468L646.132 324.736H646.772C648.991 321.152 652.063 318.507 655.988 316.8C659.913 315.008 664.052 314.112 668.404 314.112ZM725.769 384H714.505V286.72H725.769V384ZM807.153 349.568C807.153 360.917 804.252 369.707 798.449 375.936C792.732 382.165 784.966 385.28 775.153 385.28C769.094 385.28 763.676 383.915 758.897 381.184C754.204 378.368 750.492 374.315 747.761 369.024C745.03 363.648 743.665 357.163 743.665 349.568C743.665 338.219 746.524 329.472 752.241 323.328C757.958 317.184 765.724 314.112 775.537 314.112C781.766 314.112 787.228 315.52 791.921 318.336C796.7 321.067 800.412 325.077 803.057 330.368C805.788 335.573 807.153 341.973 807.153 349.568ZM755.313 349.568C755.313 357.675 756.892 364.117 760.049 368.896C763.292 373.589 768.412 375.936 775.409 375.936C782.321 375.936 787.398 373.589 790.641 368.896C793.884 364.117 795.505 357.675 795.505 349.568C795.505 341.461 793.884 335.104 790.641 330.496C787.398 325.888 782.278 323.584 775.281 323.584C768.284 323.584 763.206 325.888 760.049 330.496C756.892 335.104 755.313 341.461 755.313 349.568ZM850.989 314.24C859.352 314.24 865.538 316.075 869.549 319.744C873.56 323.413 875.565 329.259 875.565 337.28V384H867.373L865.197 374.272H864.685C861.698 378.027 858.541 380.8 855.213 382.592C851.97 384.384 847.448 385.28 841.645 385.28C835.416 385.28 830.253 383.659 826.157 380.416C822.061 377.088 820.013 371.925 820.013 364.928C820.013 358.101 822.701 352.853 828.077 349.184C833.453 345.429 841.73 343.381 852.909 343.04L864.557 342.656V338.56C864.557 332.843 863.32 328.875 860.845 326.656C858.37 324.437 854.872 323.328 850.349 323.328C846.765 323.328 843.352 323.883 840.109 324.992C836.866 326.016 833.837 327.211 831.021 328.576L827.565 320.128C830.552 318.507 834.093 317.141 838.189 316.032C842.285 314.837 846.552 314.24 850.989 314.24ZM854.317 350.848C845.784 351.189 839.853 352.555 836.525 354.944C833.282 357.333 831.661 360.704 831.661 365.056C831.661 368.896 832.813 371.712 835.117 373.504C837.506 375.296 840.536 376.192 844.205 376.192C850.008 376.192 854.829 374.613 858.669 371.456C862.509 368.213 864.429 363.264 864.429 356.608V350.464L854.317 350.848ZM921.075 385.28C912.542 385.28 905.715 382.336 900.595 376.448C895.475 370.475 892.915 361.6 892.915 349.824C892.915 338.048 895.475 329.173 900.595 323.2C905.8 317.141 912.67 314.112 921.203 314.112C926.494 314.112 930.803 315.093 934.131 317.056C937.544 319.019 940.318 321.408 942.451 324.224H943.219C943.134 323.115 942.963 321.493 942.707 319.36C942.536 317.141 942.451 315.392 942.451 314.112V286.72H953.715V384H944.627L942.963 374.784H942.451C940.403 377.685 937.672 380.16 934.259 382.208C930.846 384.256 926.451 385.28 921.075 385.28ZM922.867 375.936C930.12 375.936 935.198 373.973 938.099 370.048C941.086 366.037 942.579 360.021 942.579 352V349.952C942.579 341.419 941.171 334.891 938.355 330.368C935.539 325.76 930.334 323.456 922.739 323.456C916.68 323.456 912.115 325.888 909.043 330.752C906.056 335.531 904.563 341.973 904.563 350.08C904.563 358.272 906.056 364.629 909.043 369.152C912.115 373.675 916.723 375.936 922.867 375.936Z" fill="white"/>
<path d="M1034.74 314.24C1043.1 314.24 1049.29 316.075 1053.3 319.744C1057.31 323.413 1059.32 329.259 1059.32 337.28V384H1051.12L1048.95 374.272H1048.44C1045.45 378.027 1042.29 380.8 1038.96 382.592C1035.72 384.384 1031.2 385.28 1025.4 385.28C1019.17 385.28 1014 383.659 1009.91 380.416C1005.81 377.088 1003.76 371.925 1003.76 364.928C1003.76 358.101 1006.45 352.853 1011.83 349.184C1017.2 345.429 1025.48 343.381 1036.66 343.04L1048.31 342.656V338.56C1048.31 332.843 1047.07 328.875 1044.6 326.656C1042.12 324.437 1038.62 323.328 1034.1 323.328C1030.52 323.328 1027.1 323.883 1023.86 324.992C1020.62 326.016 1017.59 327.211 1014.77 328.576L1011.32 320.128C1014.3 318.507 1017.84 317.141 1021.94 316.032C1026.04 314.837 1030.3 314.24 1034.74 314.24ZM1038.07 350.848C1029.53 351.189 1023.6 352.555 1020.28 354.944C1017.03 357.333 1015.41 360.704 1015.41 365.056C1015.41 368.896 1016.56 371.712 1018.87 373.504C1021.26 375.296 1024.29 376.192 1027.96 376.192C1033.76 376.192 1038.58 374.613 1042.42 371.456C1046.26 368.213 1048.18 363.264 1048.18 356.608V350.464L1038.07 350.848ZM1113.53 314.112C1121.72 314.112 1127.91 316.117 1132.09 320.128C1136.27 324.053 1138.36 330.453 1138.36 339.328V384H1127.23V340.096C1127.23 329.088 1122.11 323.584 1111.87 323.584C1104.27 323.584 1099.02 325.717 1096.12 329.984C1093.22 334.251 1091.77 340.395 1091.77 348.416V384H1080.51V315.392H1089.59L1091.26 324.736H1091.9C1094.12 321.152 1097.19 318.507 1101.11 316.8C1105.04 315.008 1109.18 314.112 1113.53 314.112ZM1148.88 315.392H1160.91L1175.76 354.432C1177.04 357.845 1178.19 361.131 1179.21 364.288C1180.24 367.36 1181.01 370.304 1181.52 373.12H1182.03C1182.54 370.987 1183.35 368.213 1184.46 364.8C1185.57 361.301 1186.72 357.803 1187.92 354.304L1201.87 315.392H1214.03L1184.46 393.472C1182.07 399.957 1178.96 405.12 1175.12 408.96C1171.36 412.8 1166.16 414.72 1159.5 414.72C1157.45 414.72 1155.66 414.592 1154.13 414.336C1152.59 414.165 1151.27 413.952 1150.16 413.696V404.736C1151.1 404.907 1152.21 405.077 1153.49 405.248C1154.85 405.419 1156.26 405.504 1157.71 405.504C1161.64 405.504 1164.79 404.395 1167.18 402.176C1169.66 399.957 1171.58 397.013 1172.94 393.344L1176.53 384.256L1148.88 315.392ZM1247.79 376.064C1249.5 376.064 1251.25 375.936 1253.04 375.68C1254.83 375.339 1256.28 374.997 1257.39 374.656V383.232C1256.2 383.829 1254.49 384.299 1252.27 384.64C1250.05 385.067 1247.92 385.28 1245.87 385.28C1242.29 385.28 1238.96 384.683 1235.89 383.488C1232.9 382.208 1230.47 380.032 1228.59 376.96C1226.71 373.888 1225.78 369.579 1225.78 364.032V324.096H1216.05V318.72L1225.9 314.24L1230.38 299.648H1237.04V315.392H1256.88V324.096H1237.04V363.776C1237.04 367.957 1238.02 371.072 1239.98 373.12C1242.03 375.083 1244.63 376.064 1247.79 376.064ZM1282.39 315.264C1282.39 318.677 1282.18 321.877 1281.75 324.864H1282.52C1284.74 321.365 1287.73 318.72 1291.48 316.928C1295.32 315.136 1299.46 314.24 1303.9 314.24C1312.26 314.24 1318.53 316.245 1322.71 320.256C1326.9 324.181 1328.99 330.539 1328.99 339.328V384H1317.85V340.096C1317.85 329.088 1312.73 323.584 1302.49 323.584C1294.81 323.584 1289.52 325.76 1286.62 330.112C1283.8 334.379 1282.39 340.523 1282.39 348.544V384H1271.13V286.72H1282.39V315.264ZM1356.02 289.664C1357.72 289.664 1359.22 290.261 1360.5 291.456C1361.86 292.565 1362.54 294.357 1362.54 296.832C1362.54 299.221 1361.86 301.013 1360.5 302.208C1359.22 303.403 1357.72 304 1356.02 304C1354.14 304 1352.56 303.403 1351.28 302.208C1350 301.013 1349.36 299.221 1349.36 296.832C1349.36 294.357 1350 292.565 1351.28 291.456C1352.56 290.261 1354.14 289.664 1356.02 289.664ZM1361.52 315.392V384H1350.26V315.392H1361.52ZM1416.28 314.112C1424.47 314.112 1430.66 316.117 1434.84 320.128C1439.02 324.053 1441.11 330.453 1441.11 339.328V384H1429.98V340.096C1429.98 329.088 1424.86 323.584 1414.62 323.584C1407.02 323.584 1401.77 325.717 1398.87 329.984C1395.97 334.251 1394.52 340.395 1394.52 348.416V384H1383.26V315.392H1392.34L1394.01 324.736H1394.65C1396.87 321.152 1399.94 318.507 1403.86 316.8C1407.79 315.008 1411.93 314.112 1416.28 314.112ZM1486.7 314.112C1491.22 314.112 1495.28 314.965 1498.86 316.672C1502.53 318.379 1505.64 320.981 1508.2 324.48H1508.84L1510.38 315.392H1519.34V385.152C1519.34 394.965 1516.82 402.347 1511.79 407.296C1506.84 412.245 1499.12 414.72 1488.62 414.72C1478.55 414.72 1470.32 413.269 1463.92 410.368V400C1470.66 403.584 1479.11 405.376 1489.26 405.376C1495.15 405.376 1499.76 403.627 1503.08 400.128C1506.5 396.715 1508.2 392.021 1508.2 386.048V383.36C1508.2 382.336 1508.25 380.885 1508.33 379.008C1508.42 377.045 1508.5 375.68 1508.59 374.912H1508.08C1503.47 381.824 1496.39 385.28 1486.83 385.28C1477.95 385.28 1471 382.165 1465.96 375.936C1461.01 369.707 1458.54 361.003 1458.54 349.824C1458.54 338.901 1461.01 330.24 1465.96 323.84C1471 317.355 1477.91 314.112 1486.7 314.112ZM1488.24 323.584C1482.52 323.584 1478.08 325.888 1474.92 330.496C1471.77 335.019 1470.19 341.504 1470.19 349.952C1470.19 358.4 1471.72 364.885 1474.8 369.408C1477.95 373.845 1482.52 376.064 1488.49 376.064C1495.4 376.064 1500.44 374.229 1503.6 370.56C1506.75 366.805 1508.33 360.789 1508.33 352.512V349.824C1508.33 340.437 1506.71 333.739 1503.47 329.728C1500.23 325.632 1495.15 323.584 1488.24 323.584Z" fill="white"/>
<path d="M1539.44 377.062C1539.44 375.479 1539.65 374.146 1540.06 373.062C1540.48 371.938 1541.04 371.042 1541.75 370.375C1542.46 369.667 1543.29 369.167 1544.25 368.875C1545.21 368.542 1546.25 368.375 1547.38 368.375C1548.46 368.375 1549.48 368.542 1550.44 368.875C1551.44 369.167 1552.29 369.667 1553 370.375C1553.71 371.042 1554.27 371.938 1554.69 373.062C1555.1 374.146 1555.31 375.479 1555.31 377.062C1555.31 378.604 1555.1 379.938 1554.69 381.062C1554.27 382.146 1553.71 383.042 1553 383.75C1552.29 384.458 1551.44 384.979 1550.44 385.312C1549.48 385.646 1548.46 385.812 1547.38 385.812C1546.25 385.812 1545.21 385.646 1544.25 385.312C1543.29 384.979 1542.46 384.458 1541.75 383.75C1541.04 383.042 1540.48 382.146 1540.06 381.062C1539.65 379.938 1539.44 378.604 1539.44 377.062Z" fill="url(#paint2_linear_2_88)"/>
</g>
<path d="M158.655 936.189L133.5 911.5L150 894L164.601 924.298L171 911.5L185 917.5L169.68 934.836L170 935.5L168.818 935.811L166 939L157.5 938.5L158.655 936.189Z" fill="#467342"/>
<path d="M164 950C164 950 139 934.5 111 951.5C83 968.5 86.5 1049 117 1066C147.5 1083 163.5 1068.5 163.5 1068.5" stroke="#FF9500" stroke-width="24"/>
<path d="M164 950C164 950 139 934.5 111 951.5C83 968.5 86.5 1049 117 1066C147.5 1083 163.5 1068.5 163.5 1068.5" stroke="#FF9500" stroke-width="24"/>
<path d="M163 950.465C163 950.465 188 934.965 216 951.965C244 968.965 240.5 1049.46 210 1066.46C179.5 1083.46 163.5 1068.96 163.5 1068.96" stroke="#FF9500" stroke-width="24"/>
<path d="M163 950.465C163 950.465 188 934.965 216 951.965C244 968.965 240.5 1049.46 210 1066.46C179.5 1083.46 163.5 1068.96 163.5 1068.96" stroke="#FF9500" stroke-width="24"/>
<path d="M164.082 951.011C164.082 951.011 146.047 935.716 125.848 952.491C105.648 969.266 108.173 1048.7 130.176 1065.48C152.179 1082.25 163.721 1067.94 163.721 1067.94" stroke="#FF0900" stroke-width="24"/>
<path d="M164.082 951.011C164.082 951.011 146.047 935.716 125.848 952.491C105.648 969.266 108.173 1048.7 130.176 1065.48C152.179 1082.25 163.721 1067.94 163.721 1067.94" stroke="#FF6A00" stroke-width="24"/>
<path d="M163.082 951.011C163.082 951.011 149.902 935.716 135.141 952.491C120.38 969.266 122.226 1048.7 138.305 1065.48C154.383 1082.25 162.818 1067.94 162.818 1067.94" stroke="#FF0900" stroke-width="24"/>
<path d="M163.082 951.011C163.082 951.011 149.902 935.716 135.141 952.491C120.38 969.266 122.226 1048.7 138.305 1065.48C154.383 1082.25 162.818 1067.94 162.818 1067.94" stroke="#FF6A00" stroke-width="24"/>
<path d="M163.082 951.06C163.082 951.06 181.117 935.647 201.316 952.552C221.516 969.457 218.991 1049.51 196.988 1066.41C174.985 1083.32 163.443 1068.9 163.443 1068.9" stroke="#FF0900" stroke-width="24"/>
<path d="M163.082 951.06C163.082 951.06 181.117 935.647 201.316 952.552C221.516 969.457 218.991 1049.51 196.988 1066.41C174.985 1083.32 163.443 1068.9 163.443 1068.9" stroke="#FF6A00" stroke-width="24"/>
<path d="M163.082 951.06C163.082 951.06 176.261 935.647 191.022 952.552C205.783 969.457 203.938 1049.51 187.859 1066.41C171.78 1083.32 163.346 1068.9 163.346 1068.9" stroke="#FF0900" stroke-width="24"/>
<path d="M163.082 951.06C163.082 951.06 176.261 935.647 191.022 952.552C205.783 969.457 203.938 1049.51 187.859 1066.41C171.78 1083.32 163.346 1068.9 163.346 1068.9" stroke="#FF6A00" stroke-width="24"/>
<ellipse cx="164" cy="1008" rx="29" ry="71" fill="#FF9500"/>
<path d="M299.311 1008.53L288.263 997.686L295.51 990L301.923 1003.31L304.733 997.686L310.882 1000.32L304.153 1007.94L304.294 1008.23L303.775 1008.36L302.537 1009.76L298.804 1009.54L299.311 1008.53Z" fill="#467342"/>
<path d="M301.659 1014.6C301.659 1014.6 290.679 1007.79 278.381 1015.25C266.083 1022.72 267.62 1058.08 281.016 1065.54C294.412 1073.01 301.439 1066.64 301.439 1066.64" stroke="#FF9500" stroke-width="24"/>
<path d="M301.659 1014.6C301.659 1014.6 290.679 1007.79 278.381 1015.25C266.083 1022.72 267.62 1058.08 281.016 1065.54C294.412 1073.01 301.439 1066.64 301.439 1066.64" stroke="#FF9500" stroke-width="24"/>
<path d="M301.22 1014.8C301.22 1014.8 312.2 1007.99 324.498 1015.46C336.795 1022.93 335.258 1058.28 321.862 1065.75C308.467 1073.21 301.439 1066.85 301.439 1066.85" stroke="#FF9500" stroke-width="24"/>
<path d="M301.22 1014.8C301.22 1014.8 312.2 1007.99 324.498 1015.46C336.795 1022.93 335.258 1058.28 321.862 1065.75C308.467 1073.21 301.439 1066.85 301.439 1066.85" stroke="#FF9500" stroke-width="24"/>
<path d="M301.695 1015.04C301.695 1015.04 293.774 1008.32 284.902 1015.69C276.03 1023.06 277.139 1057.95 286.803 1065.31C296.467 1072.68 301.536 1066.4 301.536 1066.4" stroke="#FF0900" stroke-width="24"/>
<path d="M301.695 1015.04C301.695 1015.04 293.774 1008.32 284.902 1015.69C276.03 1023.06 277.139 1057.95 286.803 1065.31C296.467 1072.68 301.536 1066.4 301.536 1066.4" stroke="#FF6A00" stroke-width="24"/>
<path d="M301.256 1015.04C301.256 1015.04 295.467 1008.32 288.984 1015.69C282.501 1023.06 283.311 1057.95 290.373 1065.31C297.435 1072.68 301.14 1066.4 301.14 1066.4" stroke="#FF0900" stroke-width="24"/>
<path d="M301.256 1015.04C301.256 1015.04 295.467 1008.32 288.984 1015.69C282.501 1023.06 283.311 1057.95 290.373 1065.31C297.435 1072.68 301.14 1066.4 301.14 1066.4" stroke="#FF6A00" stroke-width="24"/>
<path d="M301.256 1015.06C301.256 1015.06 309.177 1008.29 318.048 1015.72C326.92 1023.14 325.811 1058.3 316.147 1065.73C306.484 1073.15 301.414 1066.82 301.414 1066.82" stroke="#FF0900" stroke-width="24"/>
<path d="M301.256 1015.06C301.256 1015.06 309.177 1008.29 318.048 1015.72C326.92 1023.14 325.811 1058.3 316.147 1065.73C306.484 1073.15 301.414 1066.82 301.414 1066.82" stroke="#FF6A00" stroke-width="24"/>
<path d="M301.256 1015.06C301.256 1015.06 307.044 1008.29 313.527 1015.72C320.01 1023.14 319.2 1058.3 312.138 1065.73C305.076 1073.15 301.371 1066.82 301.371 1066.82" stroke="#FF0900" stroke-width="24"/>
<path d="M301.256 1015.06C301.256 1015.06 307.044 1008.29 313.527 1015.72C320.01 1023.14 319.2 1058.3 312.138 1065.73C305.076 1073.15 301.371 1066.82 301.371 1066.82" stroke="#FF6A00" stroke-width="24"/>
<ellipse cx="301.5" cy="1042.5" rx="12.5" ry="41.5" fill="#FF9500"/>
<path d="M1835 958H1784L1790.06 1033H1835V958Z" stroke="#C9C9C9" stroke-width="19" stroke-linejoin="round"/>
<rect x="1657" y="923" width="141" height="159" fill="#D9D9D9"/>
<path d="M1716.5 903L1733 857L1710 798.5" stroke="white" stroke-opacity="0.03" stroke-width="19" stroke-linecap="round" stroke-linejoin="round"/>
<path d="M1697 868.5L1682.5 842.5L1686.5 773.5" stroke="white" stroke-opacity="0.03" stroke-width="19" stroke-linecap="round" stroke-linejoin="round"/>
<path d="M1758 894L1753 828L1783.5 781.5" stroke="white" stroke-opacity="0.03" stroke-width="19" stroke-linecap="round" stroke-linejoin="round"/>
</g>
</g>
<defs>
<filter id="filter0_f_2_88" x="350.791" y="269.72" width="1221.52" height="162" filterUnits="userSpaceOnUse" color-interpolation-filters="sRGB">
<feFlood flood-opacity="0" result="BackgroundImageFix"/>
<feBlend mode="normal" in="SourceGraphic" in2="BackgroundImageFix" result="shape"/>
<feGaussianBlur stdDeviation="8.5" result="effect1_foregroundBlur_2_88"/>
</filter>
<linearGradient id="paint0_linear_2_88" x1="0" y1="349.5" x2="1920" y2="349.5" gradientUnits="userSpaceOnUse">
<stop stop-color="#FF0000"/>
<stop offset="1" stop-color="#FF6A00"/>
</linearGradient>
<linearGradient id="paint1_linear_2_88" x1="0" y1="349.5" x2="1920" y2="349.5" gradientUnits="userSpaceOnUse">
<stop stop-color="#FF0000"/>
<stop offset="1" stop-color="#FF5900"/>
</linearGradient>
<linearGradient id="paint2_linear_2_88" x1="0" y1="349.5" x2="1920" y2="349.5" gradientUnits="userSpaceOnUse">
<stop stop-color="#FF0000"/>
<stop offset="1" stop-color="#FF5900"/>
</linearGradient>
<clipPath id="clip0_2_88">
<rect width="1920" height="1080" fill="white"/>
</clipPath>
<clipPath id="clip1_2_88">
<rect width="1920" height="1080" fill="white"/>
</clipPath>
</defs>
</svg>
